HIERARCHY
ROOT Bip01
{
  OFFSET 15.7446 31.5610 57.6474
  CHANNELS 6 Xposition Yposition Zposition Zrotation Xrotation Yrotation
  JOINT Bip01_Footsteps
  {
    OFFSET 53.2821 -0.0001 8.1953
    CHANNELS 6 Xposition Yposition Zposition Zrotation Xrotation Yrotation
    End Site
    {
      OFFSET 0 0 0
    }
  }
  JOINT b_Hips
  {
    OFFSET 0.0000 0.0000 0.0000
    CHANNELS 6 Xposition Yposition Zposition Zrotation Xrotation Yrotation
    JOINT b_Spine
    {
      OFFSET 10.4409 -1.6220 0.0000
      CHANNELS 6 Xposition Yposition Zposition Zrotation Xrotation Yrotation
      JOINT b_Spine1
      {
        OFFSET 8.8514 -0.0090 0.0000
        CHANNELS 6 Xposition Yposition Zposition Zrotation Xrotation Yrotation
        JOINT b_Spine2
        {
          OFFSET 11.3035 -0.0088 -0.0000
          CHANNELS 6 Xposition Yposition Zposition Zrotation Xrotation Yrotation
          JOINT b_Spine3
          {
            OFFSET 11.0297 -0.0113 0.0000
            CHANNELS 6 Xposition Yposition Zposition Zrotation Xrotation Yrotation
            JOINT b__Neck
            {
              OFFSET 14.9480 -3.1935 0.0000
              CHANNELS 6 Xposition Yposition Zposition Zrotation Xrotation Yrotation
              JOINT b__Neck1
              {
                OFFSET 5.4958 -0.0043 -0.0000
                CHANNELS 6 Xposition Yposition Zposition Zrotation Xrotation Yrotation
                JOINT b__Neck2
                {
                  OFFSET 5.5266 -0.0049 0.0000
                  CHANNELS 6 Xposition Yposition Zposition Zrotation Xrotation Yrotation
                  JOINT b_Head
                  {
                    OFFSET 6.1093 0.0000 -0.0000
                    CHANNELS 6 Xposition Yposition Zposition Zrotation Xrotation Yrotation
                    JOINT Bip01_HeadNub
                    {
                      OFFSET 28.6688 0.0000 -0.0000
                      CHANNELS 6 Xposition Yposition Zposition Zrotation Xrotation Yrotation
                      End Site
                      {
                        OFFSET 0 0 0
                      }
                    }
                    JOINT Dog_Jaw
                    {
                      OFFSET 0.6075 2.3575 -0.0000
                      CHANNELS 6 Xposition Yposition Zposition Zrotation Xrotation Yrotation
                      End Site
                      {
                        OFFSET 0 0 0
                      }
                    }
                  }
                }
              }
            }
            JOINT b_LeftClav
            {
              OFFSET 10.4683 2.1257 3.5190
              CHANNELS 6 Xposition Yposition Zposition Zrotation Xrotation Yrotation
              JOINT b_LeftArm
              {
                OFFSET 7.3453 0.0000 0.0000
                CHANNELS 6 Xposition Yposition Zposition Zrotation Xrotation Yrotation
                JOINT b_LeftForeArm
                {
                  OFFSET 23.3863 -0.0000 0.0000
                  CHANNELS 6 Xposition Yposition Zposition Zrotation Xrotation Yrotation
                  JOINT b_LeftHand
                  {
                    OFFSET 21.5040 0.0000 0.0000
                    CHANNELS 6 Xposition Yposition Zposition Zrotation Xrotation Yrotation
                    JOINT b__LeftFinger
                    {
                      OFFSET 1.5926 6.2126 -0.0138
                      CHANNELS 6 Xposition Yposition Zposition Zrotation Xrotation Yrotation
                      JOINT Bip01_L_Finger0Nub
                      {
                        OFFSET 23.3657 0.0000 0.0000
                        CHANNELS 6 Xposition Yposition Zposition Zrotation Xrotation Yrotation
                        End Site
                        {
                          OFFSET 0 0 0
                        }
                      }
                    }
                  }
                }
                JOINT Dog_LeftArmor002
                {
                  OFFSET 4.2035 4.4457 12.7354
                  CHANNELS 6 Xposition Yposition Zposition Zrotation Xrotation Yrotation
                  End Site
                  {
                    OFFSET 0 0 0
                  }
                }
              }
            }
            JOINT b_RightClav
            {
              OFFSET 10.4683 2.1257 -3.5189
              CHANNELS 6 Xposition Yposition Zposition Zrotation Xrotation Yrotation
              JOINT b_RightArm
              {
                OFFSET 7.3453 -0.0000 -0.0000
                CHANNELS 6 Xposition Yposition Zposition Zrotation Xrotation Yrotation
                JOINT b_RightForeArm
                {
                  OFFSET 23.3863 0.0000 0.0000
                  CHANNELS 6 Xposition Yposition Zposition Zrotation Xrotation Yrotation
                  JOINT b_RightHand
                  {
                    OFFSET 21.5040 0.0000 0.0000
                    CHANNELS 6 Xposition Yposition Zposition Zrotation Xrotation Yrotation
                    JOINT b_RightFinger
                    {
                      OFFSET 1.5926 6.2126 0.0138
                      CHANNELS 6 Xposition Yposition Zposition Zrotation Xrotation Yrotation
                      JOINT Bip01_R_Finger0Nub
                      {
                        OFFSET 23.3657 0.0000 0.0000
                        CHANNELS 6 Xposition Yposition Zposition Zrotation Xrotation Yrotation
                        End Site
                        {
                          OFFSET 0 0 0
                        }
                      }
                    }
                  }
                }
                JOINT Dog_RightArmor002
                {
                  OFFSET 4.2034 4.4457 -12.7351
                  CHANNELS 6 Xposition Yposition Zposition Zrotation Xrotation Yrotation
                  End Site
                  {
                    OFFSET 0 0 0
                  }
                }
              }
            }
          }
        }
      }
    }
    JOINT b_Tail001
    {
      OFFSET -4.7889 3.8598 0.8608
      CHANNELS 6 Xposition Yposition Zposition Zrotation Xrotation Yrotation
      JOINT b_Tail002
      {
        OFFSET 4.2212 0.0000 -0.0000
        CHANNELS 6 Xposition Yposition Zposition Zrotation Xrotation Yrotation
        JOINT b_Tail003
        {
          OFFSET 4.9750 0.0000 -0.0000
          CHANNELS 6 Xposition Yposition Zposition Zrotation Xrotation Yrotation
          JOINT b_Tail004
          {
            OFFSET 4.7171 -0.0000 0.0000
            CHANNELS 6 Xposition Yposition Zposition Zrotation Xrotation Yrotation
            JOINT b_Tail005
            {
              OFFSET 9.7173 -0.0000 -0.0001
              CHANNELS 6 Xposition Yposition Zposition Zrotation Xrotation Yrotation
              JOINT b_Tail006
              {
                OFFSET 8.2617 0.0001 0.0000
                CHANNELS 6 Xposition Yposition Zposition Zrotation Xrotation Yrotation
                JOINT b_Tail007
                {
                  OFFSET 9.7599 -0.0001 0.0000
                  CHANNELS 6 Xposition Yposition Zposition Zrotation Xrotation Yrotation
                  JOINT b_Tail008
                  {
                    OFFSET 11.1530 0.0000 -0.0000
                    CHANNELS 6 Xposition Yposition Zposition Zrotation Xrotation Yrotation
                    JOINT b_Tail009
                    {
                      OFFSET 10.3039 0.0000 0.0000
                      CHANNELS 6 Xposition Yposition Zposition Zrotation Xrotation Yrotation
                      End Site
                      {
                        OFFSET 0 0 0
                      }
                    }
                  }
                }
              }
            }
          }
        }
      }
    }
    JOINT Dog_LeftTail001
    {
      OFFSET -11.9878 -1.7857 10.1900
      CHANNELS 6 Xposition Yposition Zposition Zrotation Xrotation Yrotation
      JOINT Dog_LeftTail002
      {
        OFFSET 8.4424 0.0000 0.0000
        CHANNELS 6 Xposition Yposition Zposition Zrotation Xrotation Yrotation
        JOINT Dog_LeftTail003
        {
          OFFSET 9.9501 0.0000 -0.0000
          CHANNELS 6 Xposition Yposition Zposition Zrotation Xrotation Yrotation
          JOINT Dog_LeftTail004
          {
            OFFSET 9.4342 0.0000 -0.0000
            CHANNELS 6 Xposition Yposition Zposition Zrotation Xrotation Yrotation
            JOINT Dog_LeftTail005
            {
              OFFSET 9.7173 0.0001 0.0001
              CHANNELS 6 Xposition Yposition Zposition Zrotation Xrotation Yrotation
              JOINT Dog_LeftTail006
              {
                OFFSET 8.2618 -0.0000 -0.0000
                CHANNELS 6 Xposition Yposition Zposition Zrotation Xrotation Yrotation
                JOINT Dog_LeftTail007
                {
                  OFFSET 9.7599 0.0000 0.0000
                  CHANNELS 6 Xposition Yposition Zposition Zrotation Xrotation Yrotation
                  JOINT Dog_LeftTail008
                  {
                    OFFSET 11.1529 -0.0001 -0.0001
                    CHANNELS 6 Xposition Yposition Zposition Zrotation Xrotation Yrotation
                    JOINT Dog_LeftTail009
                    {
                      OFFSET 10.3039 -0.0000 0.0000
                      CHANNELS 6 Xposition Yposition Zposition Zrotation Xrotation Yrotation
                      End Site
                      {
                        OFFSET 0 0 0
                      }
                    }
                  }
                }
              }
            }
          }
        }
      }
    }
    JOINT b_LeftLegUpper
    {
      OFFSET -0.0000 0.0000 9.9422
      CHANNELS 6 Xposition Yposition Zposition Zrotation Xrotation Yrotation
      JOINT b_LeftLeg
      {
        OFFSET 25.9795 0.0000 0.0000
        CHANNELS 6 Xposition Yposition Zposition Zrotation Xrotation Yrotation
        JOINT b_LeftLeg1
        {
          OFFSET 21.2087 0.0000 -0.0000
          CHANNELS 6 Xposition Yposition Zposition Zrotation Xrotation Yrotation
          JOINT b_LeftAnkle
          {
            OFFSET 10.4341 -0.0000 0.0000
            CHANNELS 6 Xposition Yposition Zposition Zrotation Xrotation Yrotation
            JOINT b_LeftToe
            {
              OFFSET 5.6676 6.5983 -0.0000
              CHANNELS 6 Xposition Yposition Zposition Zrotation Xrotation Yrotation
              JOINT Bip01_L_Toe0Nub
              {
                OFFSET 8.6279 -0.0000 0.0000
                CHANNELS 6 Xposition Yposition Zposition Zrotation Xrotation Yrotation
                End Site
                {
                  OFFSET 0 0 0
                }
              }
            }
            JOINT b_LeftToe002
            {
              OFFSET 5.6741 -2.3619 -0.5306
              CHANNELS 6 Xposition Yposition Zposition Zrotation Xrotation Yrotation
              End Site
              {
                OFFSET 0 0 0
              }
            }
          }
        }
      }
      JOINT Dog_LeftArmor001
      {
        OFFSET -2.6287 -3.4254 -3.1462
        CHANNELS 6 Xposition Yposition Zposition Zrotation Xrotation Yrotation
        End Site
        {
          OFFSET 0 0 0
        }
      }
    }
    JOINT b_RightLegUpper
    {
      OFFSET 0.0000 -0.0000 -9.9422
      CHANNELS 6 Xposition Yposition Zposition Zrotation Xrotation Yrotation
      JOINT b_RightLeg
      {
        OFFSET 25.9795 0.0000 0.0000
        CHANNELS 6 Xposition Yposition Zposition Zrotation Xrotation Yrotation
        JOINT b_RightLeg1
        {
          OFFSET 21.2087 0.0000 0.0000
          CHANNELS 6 Xposition Yposition Zposition Zrotation Xrotation Yrotation
          JOINT b_RightAnkle
          {
            OFFSET 10.4341 -0.0000 -0.0000
            CHANNELS 6 Xposition Yposition Zposition Zrotation Xrotation Yrotation
            JOINT b_RightToe
            {
              OFFSET 5.6676 6.5983 -0.0000
              CHANNELS 6 Xposition Yposition Zposition Zrotation Xrotation Yrotation
              JOINT Bip01_R_Toe0Nub
              {
                OFFSET 8.6279 -0.0000 0.0000
                CHANNELS 6 Xposition Yposition Zposition Zrotation Xrotation Yrotation
                End Site
                {
                  OFFSET 0 0 0
                }
              }
            }
            JOINT b_RightToe002
            {
              OFFSET 5.6741 -2.3620 0.5304
              CHANNELS 6 Xposition Yposition Zposition Zrotation Xrotation Yrotation
              End Site
              {
                OFFSET 0 0 0
              }
            }
          }
        }
      }
      JOINT Dog_RightArmor001
      {
        OFFSET -2.6288 -3.4254 3.1460
        CHANNELS 6 Xposition Yposition Zposition Zrotation Xrotation Yrotation
        End Site
        {
          OFFSET 0 0 0
        }
      }
    }
  }
}
MOTION
Frames: 4
Frame Time: 0.03333333
-58.1901 57.6329 597.504 87.6517 -21.4529 -171.357 53.2821 -6.35e-05 8.19533 -90 -81.2558 -180 0 0 0 -89.9999 -4.1675e-14 -90 10.4409 -1.622 1.78e-05 -0.135485 -1.33006 -3.24067 8.8514 -0.0089989 -2.84217e-14 -6.33485 2.52041 1.11167 11.3035 -0.0087814 0 -5.85877 6.35339 -0.966134 11.0297 -0.0113029 0 0.0863721 4.21444 -2.93441 14.948 -3.19349 8.6e-06 -45.9391 -9.62491 -37.0487 5.49578 -0.0042877 0 17.2755 3.89194 30.9509 5.52657 -0.0048637 0 -2.3915 2.91777 -0.919621 6.10934 0 0 36.4575 -2.63735 7.93636 28.6688 7.10543e-15 0 -0 0 -0 0.607494 2.35752 -7.6e-06 -156.427 -0.000147608 180 10.4683 2.1257 3.51896 -174.029 8.60147 -90.1167 7.34534 0 1.9e-06 -111.946 -89.3463 -17.8581 23.3863 -1.9e-06 1e-06 -1.03209 -0.59174 -1.25258 21.504 0 0 -86.8547 -5.84536 0.876525 1.59262 6.21256 -0.0138378 1.56975 -6.488 -4.84874 23.3657 -7.10543e-15 1e-06 -1.59028e-15 -2.38542e-15 -0 4.20345 4.44573 12.7354 172.377 0.21838 -87.1877 10.4683 2.12572 -3.51895 177.43 8.94207 93.936 7.34534 0 -1.9e-06 -37.962 67.7151 -52.3833 23.3863 1.9e-06 0 -12.888 3.97569e-16 4.47266e-15 21.504 3.8e-06 1e-06 -98.6477 -12.9232 23.5462 1.59262 6.21257 0.0138388 -14.4208 -3.6712 2.88815 23.3657 -2.84217e-14 1e-06 180 -4.77083e-15 -0 4.20337 4.4457 -12.7351 172.377 -0.218352 87.1876 -4.78895 3.85983 0.86083 129.563 9.27199 9.44902 4.22117 3.815e-05 -5.7e-06 -22.0188 -14.4301 -1.68955 4.97505 3.8e-06 -6.7e-06 -47.3764 -11.6837 8.69001 4.7171 -1.145e-05 2.86e-05 -6.36111e-15 -1.49089e-16 -3.04389e-16 9.71734 -4.2e-05 -5.72e-05 -3.18055e-15 -1.49089e-16 -2.85753e-16 8.26175 8.01e-05 5.7e-06 -1.01296e-33 -1.98785e-16 -2.91965e-16 9.75986 -6.48e-05 2.86e-05 2.02053e-32 6.21202e-16 -1.86361e-15 11.153 2.67e-05 -2.1e-05 2.4513e-32 6.70898e-16 -2.09345e-15 10.3039 1.14e-05 4.2e-05 -6.30404e-34 -4.96962e-17 -7.26806e-16 -11.9878 -1.78568 10.19 170.606 3.62573 1.11034 8.44238 1.53e-05 4.2e-05 -9.93923e-17 -4.22417e-16 6.36111e-15 9.95005 7.6e-06 -2.86e-05 3.03456e-32 -2.73329e-16 6.36111e-15 9.43418 -7.10543e-15 -4.58e-05 1.10348e-32 -9.93923e-17 6.36111e-15 9.71733 6.87e-05 0.0001106 9.93923e-17 2.23633e-16 -0 8.26175 -2.29e-05 -4.77e-05 -4.96564e-32 4.47266e-16 6.36111e-15 9.75994 2.86e-05 3.05e-05 -2.20695e-32 1.98785e-16 6.36111e-15 11.1529 -7.25e-05 -5.91e-05 -9.93923e-17 1.2424e-16 6.36111e-15 10.3039 -7.6e-06 0 -1.24141e-32 7.45443e-17 9.54166e-15 -1.14e-05 1.53e-05 9.94222 -100.45 12.7076 -173.346 25.9795 1e-06 1.42109e-14 -43.9494 -0.165809 -1.19932 21.2087 1.9e-06 -1e-06 52.5178 8.77635 -10.4857 10.4341 -1.9e-06 1e-06 -14.2994 -2.79358 4.37235 5.66763 6.59832 0 92.7591 15.2313 -6.02483 8.62785 3.55271e-15 2.84217e-14 -180 -3.23025e-14 -1.90833e-14 5.67414 -2.36194 -0.530567 -75.8081 4.38708 5.33411 -2.62874 -3.42539 -3.14618 29.7499 1.82752 90.2264 1.53e-05 -1.53e-05 -9.94222 -101.883 -17.279 176.899 25.9795 0 1e-06 -37.7871 -0.193489 2.59016 21.2087 -5.68434e-14 1.9e-06 53.6934 -16.5787 14.1184 10.4341 -1.9e-06 -1e-06 -13.4239 9.92072 -5.26772 5.66763 6.59831 0 85.8452 1.09278 -0.354427 8.62785 1.77636e-15 5.68434e-14 -9.93129e-32 -1.78906e-15 -3.18055e-15 5.67412 -2.36198 0.530356 -75.808 -4.38692 -5.33418 -2.62878 -3.42545 3.14601 29.7498 -1.82753 -90.2266
-59.4405 57.7509 596.28 92.2435 -20.9893 -169.206 53.2821 -6.35e-05 8.19533 -90 -81.2558 -180 0 0 0 -89.9999 -5.43972e-14 -90 10.4409 -1.622 1.78e-05 -0.0567763 -1.31417 -3.27331 8.8514 -0.0089989 2.84217e-14 -6.4306 2.54728 1.10972 11.3035 -0.0087814 -2.84217e-14 -6.00098 6.36386 -0.887611 11.0297 -0.0113029 -1.42109e-14 -0.125617 4.32509 -2.77909 14.948 -3.19349 8.6e-06 -44.5587 -8.76144 -37.9985 5.49578 -0.0042877 0 16.2702 3.21093 33.7131 5.52657 -0.0048637 2.84217e-14 -2.42462 2.85837 -0.817154 6.10934 0 2.84217e-14 36.3594 -2.56742 8.68881 28.6688 -1.42109e-14 0 -1.19271e-15 -5.96354e-16 3.18055e-15 0.607494 2.35752 -7.6e-06 -156.427 -0.000147608 180 10.4683 2.1257 3.51896 -173.922 8.98734 -90.0666 7.34534 -7.10543e-15 1.9e-06 -92.6303 -89.6677 1.08565 23.3863 -1.9e-06 1e-06 -1.03199 -0.591742 -1.25258 21.504 0 -1.42109e-14 -87.0296 -5.84799 0.858716 1.59262 6.21256 -0.0138378 1.09934 -6.79485 -5.40325 23.3657 0 1e-06 -1.59028e-15 -9.93923e-16 -1.59028e-15 4.20345 4.44573 12.7354 172.377 0.21838 -87.1877 10.4683 2.12572 -3.51895 177.459 8.65676 93.5441 7.34534 0 -1.9e-06 -38.2447 67.235 -51.8416 23.3863 1.9e-06 7.10543e-15 -12.9047 -1.19271e-15 -3.90736e-15 21.504 3.8e-06 1e-06 -98.7187 -12.8298 23.3779 1.59262 6.21257 0.0138388 -16.4101 -4.48078 2.61941 23.3657 0 1e-06 180 7.4743e-14 -3.18055e-15 4.20337 4.4457 -12.7351 172.377 -0.218352 87.1876 -4.78895 3.85983 0.86083 129.101 8.63013 7.75812 4.22117 3.815e-05 -5.7e-06 -22.6691 -15.1312 -3.00175 4.97505 3.8e-06 -6.7e-06 -46.9825 -12.2549 9.06707 4.7171 -1.145e-05 2.86e-05 1.19292e-31 1.3418e-15 -5.09386e-15 9.71734 -4.2e-05 -5.72e-05 -3.18055e-15 2.08724e-15 -8.27441e-15 8.26175 8.01e-05 5.7e-06 -3.18055e-15 1.04362e-15 -1.73937e-15 9.75986 -6.48e-05 2.86e-05 -1.20693e-33 4.96962e-17 1.39149e-15 11.153 2.67e-05 -2.1e-05 1.84272e-32 -7.45443e-16 1.41634e-15 10.3039 1.14e-05 4.2e-05 4.68978e-32 -1.59028e-15 1.68967e-15 -11.9878 -1.78568 10.19 170.606 3.62573 1.11034 8.44238 1.53e-05 4.2e-05 -0 -2.08724e-15 -0 9.95005 7.6e-06 -2.86e-05 3.97569e-16 -1.2921e-15 -6.36111e-15 9.43418 7.10543e-15 -4.58e-05 3.97569e-16 -2.98177e-16 -3.18055e-15 9.71733 6.87e-05 0.0001106 -3.97569e-16 -1.2921e-15 -6.36111e-15 8.26175 -2.29e-05 -4.77e-05 -8.27607e-32 -4.96962e-16 -9.54166e-15 9.75994 2.86e-05 3.05e-05 -1.10348e-31 -9.93923e-16 -6.36111e-15 11.1529 -7.25e-05 -5.91e-05 3.97569e-16 -7.95139e-16 -6.36111e-15 10.3039 -7.6e-06 0 -3.97569e-16 0 -6.36111e-15 -1.14e-05 1.53e-05 9.94222 -100.32 12.582 -173.456 25.9795 1e-06 0 -43.7884 -0.169179 -1.19885 21.2087 1.9e-06 -1e-06 52.5654 8.58587 -10.2014 10.4341 -1.9e-06 1e-06 -14.3675 -2.79877 4.36903 5.66763 6.59832 1.42109e-14 92.7409 15.2588 -6.68666 8.62785 -1.77636e-15 -2.84217e-14 -180 1.25918e-13 -3.18055e-15 5.67414 -2.36194 -0.530567 -75.8081 4.38708 5.33411 -2.62874 -3.42539 -3.14618 29.7499 1.82752 90.2264 1.53e-05 -1.53e-05 -9.94222 -101.941 -17.4386 176.789 25.9795 0 1e-06 -37.9048 -0.198815 2.58976 21.2087 -5.68434e-14 1.9e-06 53.9392 -17.1245 14.5381 10.4341 -1.9e-06 -1e-06 -13.479 10.357 -5.23131 5.66763 6.59831 0 85.886 0.75081 -0.663546 8.62785 0 -5.68434e-14 -6.95746e-16 5.46658e-16 -3.18055e-15 5.67412 -2.36198 0.530355 -75.808 -4.38692 -5.33418 -2.62878 -3.42545 3.14601 29.7498 -1.82753 -90.2266
-59.4572 57.7219 596.278 92.0941 -21.2481 -169.274 53.2821 -6.35e-05 8.19533 -90 -81.2558 -180 0 0 0 -89.9999 -4.1675e-14 -90 10.4409 -1.622 1.78e-05 0.178597 -1.47529 -3.68161 8.8514 -0.0089989 1.42109e-14 -6.65258 2.54168 1.15258 11.3035 -0.0087814 0 -6.19123 6.32126 -0.81689 11.0297 -0.0113029 0 -0.138096 4.2661 -2.6586 14.948 -3.19349 8.6e-06 -44.4695 -8.66263 -37.961 5.49578 -0.0042877 0 16.5413 2.67398 34.6824 5.52657 -0.0048637 0 -2.44263 2.56181 -0.840997 6.10934 0 0 36.3769 -2.78683 9.06896 28.6688 7.10543e-15 0 3.97569e-16 3.97569e-16 -0 0.607494 2.35752 -7.6e-06 -156.427 -0.000147608 180 10.4683 2.1257 3.51896 -173.855 8.91893 -90.375 7.34534 -3.55271e-15 1.9e-06 17.6103 -89.8296 111.39 23.3863 -1.9e-06 1e-06 -1.11017 -0.590032 -1.25339 21.504 -1.13687e-13 1.42109e-14 -87.0155 -5.84778 0.860146 1.59262 6.21256 -0.0138378 1.0434 -6.76362 -5.44444 23.3657 -1.42109e-14 1e-06 1.21382e-31 2.18663e-15 -3.18055e-15 4.20345 4.44573 12.7354 172.377 0.21838 -87.1877 10.4683 2.12572 -3.51895 177.541 8.57959 93.2854 7.34534 0 -1.9e-06 -38.2398 67.2155 -51.7969 23.3863 1.9e-06 0 -12.8414 3.97569e-16 -4.53788e-15 21.504 3.8e-06 1e-06 -98.797 -13.096 23.2804 1.59262 6.21257 0.0138388 -16.1913 -4.20066 2.61047 23.3657 0 1e-06 180 7.31528e-14 1.27222e-14 4.20337 4.4457 -12.7351 172.377 -0.218352 87.1876 -4.78895 3.85983 0.86083 128.512 7.48088 5.31662 4.22117 3.815e-05 -5.7e-06 -23.9535 -17.7439 -5.56389 4.97505 3.8e-06 -6.7e-06 -46.917 -12.3648 8.9161 4.7171 -1.145e-05 2.86e-05 3.18055e-15 -5.71506e-16 -4.50993e-15 9.71734 -4.2e-05 -5.72e-05 3.18055e-15 -1.04362e-15 6.89534e-16 8.26175 8.01e-05 5.7e-06 3.18055e-15 -2.23633e-16 -8.88319e-16 9.75986 -6.48e-05 2.86e-05 6.36111e-15 1.2424e-16 -2.34193e-15 11.153 2.67e-05 -2.1e-05 6.36111e-15 8.94531e-16 -2.03754e-15 10.3039 1.14e-05 4.2e-05 6.36111e-15 -1.06847e-15 2.8948e-15 -11.9878 -1.78568 10.19 170.606 3.62573 1.11034 8.44238 1.53e-05 4.2e-05 3.97569e-16 -9.93923e-17 -0 9.95005 7.6e-06 -2.86e-05 -3.97569e-16 -7.95139e-16 -6.36111e-15 9.43418 0 -4.58e-05 1.21382e-31 1.09332e-15 -6.36111e-15 9.71733 6.87e-05 0.0001106 -3.97569e-16 1.2921e-15 -3.18055e-15 8.26175 -2.29e-05 -4.77e-05 3.97569e-16 -7.95139e-16 -3.18055e-15 9.75994 2.86e-05 3.05e-05 3.97569e-16 0 -9.54166e-15 11.1529 -7.25e-05 -5.91e-05 3.97569e-16 7.95139e-16 -3.18055e-15 10.3039 -7.6e-06 0 7.95139e-16 8.94531e-16 -0 -1.14e-05 1.53e-05 9.94222 -99.9916 12.7707 -173.757 25.9795 1e-06 -1.42109e-14 -43.4397 -0.176474 -1.19779 21.2087 1.9e-06 -1e-06 52.6278 8.3924 -9.95008 10.4341 -1.9e-06 1e-06 -14.5036 -2.80915 4.36237 5.66763 6.59832 -1.42109e-14 92.4857 15.1196 -6.60157 8.62785 0 2.84217e-14 -180 2.31926e-14 1.59028e-14 5.67414 -2.36194 -0.530567 -75.8081 4.38708 5.33411 -2.62874 -3.42539 -3.14618 29.7499 1.82752 90.2264 1.53e-05 -1.53e-05 -9.94222 -102.159 -17.2931 176.511 25.9795 5.68434e-14 1e-06 -38.2275 -0.213404 2.5886 21.2087 0 1.9e-06 54.2383 -17.3305 14.8057 10.4341 -1.9e-06 -1e-06 -13.4941 10.441 -5.32584 5.66763 6.59831 5.68434e-14 85.8154 0.807074 -0.708642 8.62785 -1.77636e-15 0 -1.49089e-16 -2.73329e-16 -6.36111e-15 5.67412 -2.36198 0.530356 -75.808 -4.38692 -5.33418 -2.62878 -3.42545 3.14601 29.7498 -1.82753 -90.2266
-59.4866 57.7046 596.272 91.9261 -21.5768 -169.275 53.2821 -6.35e-05 8.19533 -90 -81.2558 -180 0 0 0 -89.9999 -5.43972e-14 -90 10.4409 -1.622 1.78e-05 0.315186 -1.65863 -4.1556 8.8514 -0.0089989 -2.84217e-14 -6.8584 2.53673 1.19217 11.3035 -0.0087814 0 -6.36577 6.27274 -0.743562 11.0297 -0.0113029 -1.42109e-14 -0.155072 4.20213 -2.53867 14.948 -3.19349 8.6e-06 -44.4118 -8.77192 -37.8317 5.49578 -0.0042877 0 16.7534 2.19311 35.447 5.52657 -0.0048637 -2.84217e-14 -2.4564 2.26823 -0.857126 6.10934 0 2.84217e-14 36.3864 -2.97474 9.4535 28.6688 0 -5.68434e-14 -1.19271e-15 7.95139e-16 3.18055e-15 0.607494 2.35752 -7.6e-06 -156.427 -0.000147608 180 10.4683 2.1257 3.51896 -173.778 8.86197 -90.6941 7.34534 7.10543e-15 1.9e-06 53.5772 -89.4444 147.411 23.3863 -1.9e-06 1e-06 -1.19442 -0.588188 -1.25425 21.504 0 2.84217e-14 -86.9918 -5.84742 0.862565 1.59262 6.21256 -0.0138378 0.980861 -6.73021 -5.4704 23.3657 0 1e-06 -1.59028e-15 -3.97569e-16 -1.59028e-15 4.20345 4.44573 12.7354 172.377 0.21838 -87.1877 10.4683 2.12572 -3.51895 177.615 8.49284 93.0172 7.34534 1.42109e-14 -1.9e-06 -38.3542 67.138 -51.6148 23.3863 1.9e-06 1.42109e-14 -12.7991 -1.19271e-15 1.54679e-15 21.504 3.8e-06 1e-06 -98.8535 -13.3376 23.2256 1.59262 6.21257 0.0138388 -16.0082 -3.9547 2.60152 23.3657 0 1e-06 180 2.54444e-14 -1.59028e-14 4.20337 4.4457 -12.7351 172.377 -0.218352 87.1876 -4.78895 3.85983 0.86083 128.296 6.12842 2.54916 4.22117 3.815e-05 -5.7e-06 -25.3608 -20.701 -8.50654 4.97505 3.8e-06 -6.7e-06 -46.8979 -11.9116 8.80618 4.7171 -1.145e-05 2.86e-05 6.36111e-15 -4.96962e-16 5.96354e-16 9.71734 -4.2e-05 -5.72e-05 3.18055e-15 9.93923e-17 6.4605e-16 8.26175 8.01e-05 5.7e-06 -2.06902e-33 -3.97569e-16 -2.98177e-16 9.75986 -6.48e-05 2.86e-05 -7.75882e-34 -2.98177e-16 -1.49089e-16 11.153 2.67e-05 -2.1e-05 -3.44836e-34 -1.98785e-16 -9.93923e-17 10.3039 1.14e-05 4.2e-05 1.46555e-33 9.93923e-17 -8.44835e-16 -11.9878 -1.78568 10.19 170.606 3.62573 1.11034 8.44238 1.53e-05 4.2e-05 3.97569e-16 2.08724e-15 3.18055e-15 9.95005 7.6e-06 -2.86e-05 7.95139e-16 3.97569e-16 -0 9.43418 0 -4.58e-05 7.95139e-16 2.48481e-15 3.18055e-15 9.71733 6.87e-05 0.0001106 3.97569e-16 1.2921e-15 3.18055e-15 8.26175 -2.29e-05 -4.77e-05 3.97569e-16 -2.98177e-16 -3.18055e-15 9.75994 2.86e-05 3.05e-05 3.97569e-16 1.59028e-15 -0 11.1529 -7.25e-05 -5.91e-05 7.95139e-16 9.93923e-16 -3.18055e-15 10.3039 -7.6e-06 0 3.97569e-16 1.49089e-15 -0 -1.14e-05 1.53e-05 9.94222 -99.6902 12.9682 -174.116 25.9795 1e-06 0 -43.0152 -0.185343 -1.19645 21.2087 1.9e-06 -1e-06 52.6061 8.08383 -9.69501 10.4341 -1.9e-06 1e-06 -14.5776 -2.81479 4.35874 5.66763 6.59832 0 92.2964 15.0498 -6.57398 8.62785 3.55271e-15 0 -180 6.19152e-14 6.36111e-15 5.67414 -2.36194 -0.530567 -75.8081 4.38708 5.33411 -2.62874 -3.42539 -3.14618 29.7499 1.82752 90.2264 1.53e-05 -1.53e-05 -9.94222 -102.491 -17.0989 176.186 25.9795 0 1e-06 -38.5562 -0.228263 2.58733 21.2087 5.68434e-14 1.9e-06 54.4852 -17.5542 15.0999 10.4341 -1.9e-06 -1e-06 -13.4751 10.5368 -5.42324 5.66763 6.59831 0 85.7711 0.843538 -0.740936 8.62785 0 -5.68434e-14 -1.49089e-16 4.47266e-16 3.18055e-15 5.67412 -2.36198 0.530356 -75.808 -4.38692 -5.33418 -2.62878 -3.42545 3.14601 29.7498 -1.82753 -90.2266
